<?xml version="1.0" encoding="UTF-8" standalone="no"?><svg xmlns="http://www.w3.org/2000/svg" xmlns:xlink="http://www.w3.org/1999/xlink" clip-rule="evenodd" stroke-miterlimit="4.00" viewBox="0 0 1024 768"><desc>SVG generated by Keynote</desc><defs></defs><g transform="matrix(1.00, 0.00, -0.00, -1.00, 0.0, 768.0)"><path d="M 0.0 768.0 L 1024.0 768.0 L 1024.0 0.0 L 0.0 0.0 Z M 0.0 768.0 " fill="#FFFFFF"></path><path d="M 0.0 0.0 L 935.1 0.0 " fill="none" stroke="#747676" stroke-width="3.00" stroke-linecap="round" stroke-linejoin="round" stroke-dasharray="0.0, 9.0" transform="matrix(1.00, 0.00, 0.00, -1.00, 45.0, 328.0)"></path><text xml:space="preserve" font-family="DINCondensed-Bold" font-weight="bold" font-size="121.0" fill="#5C5C5C" transform="matrix(1.00, 0.00, -0.00, -1.00, 355.0, 354.0)">N</text><text xml:space="preserve" font-family="DINCondensed-Bold" font-weight="bold" font-size="121.0" fill="#5C5C5C" transform="matrix(1.00, 0.00, -0.00, -1.00, 408.7, 354.0)">O</text><text xml:space="preserve" font-family="DINCondensed-Bold" font-weight="bold" font-size="121.0" fill="#5C5C5C" transform="matrix(1.00, 0.00, -0.00, -1.00, 460.3, 354.0)">D</text><text xml:space="preserve" font-family="DINCondensed-Bold" font-weight="bold" font-size="121.0" fill="#5C5C5C" transform="matrix(1.00, 0.00, -0.00, -1.00, 511.8, 354.0)">E</text><text xml:space="preserve" font-family="DINCondensed-Bold" font-weight="bold" font-size="121.0" fill="#5C5C5C" transform="matrix(1.00, 0.00, -0.00, -1.00, 556.6, 354.0)">,</text><text xml:space="preserve" font-family="DINCondensed-Bold" font-weight="bold" font-size="121.0" fill="#5C5C5C" transform="matrix(1.00, 0.00, -0.00, -1.00, 579.1, 354.0)">J</text><text xml:space="preserve" font-family="DINCondensed-Bold" font-weight="bold" font-size="121.0" fill="#5C5C5C" transform="matrix(1.00, 0.00, -0.00, -1.00, 619.4, 354.0)">S</text><text xml:space="preserve" font-family="IowanOldStyle-Italic" font-style="italic" font-size="48.0" fill="#747676" transform="matrix(1.00, 0.00, -0.00, -1.00, 320.0, 266.0)">U</text><text xml:space="preserve" font-family="IowanOldStyle-Italic" font-style="italic" font-size="48.0" fill="#747676" transform="matrix(1.00, 0.00, -0.00, -1.00, 354.1, 266.0)">L</text><text xml:space="preserve" font-family="IowanOldStyle-Italic" font-style="italic" font-size="48.0" fill="#747676" transform="matrix(1.00, 0.00, -0.00, -1.00, 379.0, 266.0)"> </text><text xml:space="preserve" font-family="IowanOldStyle-Italic" font-style="italic" font-size="48.0" fill="#747676" transform="matrix(1.00, 0.00, -0.00, -1.00, 389.6, 266.0)">-</text><text xml:space="preserve" font-family="IowanOldStyle-Italic" font-style="italic" font-size="48.0" fill="#747676" transform="matrix(1.00, 0.00, -0.00, -1.00, 404.3, 266.0)"> </text><text xml:space="preserve" font-family="IowanOldStyle-Italic" font-style="italic" font-size="48.0" fill="#747676" transform="matrix(1.00, 0.00, -0.00, -1.00, 414.8, 266.0)">H</text><text xml:space="preserve" font-family="IowanOldStyle-Italic" font-style="italic" font-size="48.0" fill="#747676" transform="matrix(1.00, 0.00, -0.00, -1.00, 450.8, 266.0)">a</text><text xml:space="preserve" font-family="IowanOldStyle-Italic" font-style="italic" font-size="48.0" fill="#747676" transform="matrix(1.00, 0.00, -0.00, -1.00, 473.5, 266.0)">c</text><text xml:space="preserve" font-family="IowanOldStyle-Italic" font-style="italic" font-size="48.0" fill="#747676" transform="matrix(1.00, 0.00, -0.00, -1.00, 490.8, 266.0)">k</text><text xml:space="preserve" font-family="IowanOldStyle-Italic" font-style="italic" font-size="48.0" fill="#747676" transform="matrix(1.00, 0.00, -0.00, -1.00, 514.4, 266.0)">i</text><text xml:space="preserve" font-family="IowanOldStyle-Italic" font-style="italic" font-size="48.0" fill="#747676" transform="matrix(1.00, 0.00, -0.00, -1.00, 527.6, 266.0)">n</text><text xml:space="preserve" font-family="IowanOldStyle-Italic" font-style="italic" font-size="48.0" fill="#747676" transform="matrix(1.00, 0.00, -0.00, -1.00, 551.8, 266.0)">g</text><text xml:space="preserve" font-family="IowanOldStyle-Italic" font-style="italic" font-size="48.0" fill="#747676" transform="matrix(1.00, 0.00, -0.00, -1.00, 573.9, 266.0)"> </text><text xml:space="preserve" font-family="IowanOldStyle-Italic" font-style="italic" font-size="48.0" fill="#747676" transform="matrix(1.00, 0.00, -0.00, -1.00, 584.4, 266.0)">h</text><text xml:space="preserve" font-family="IowanOldStyle-Italic" font-style="italic" font-size="48.0" fill="#747676" transform="matrix(1.00, 0.00, -0.00, -1.00, 608.4, 266.0)">o</text><text xml:space="preserve" font-family="IowanOldStyle-Italic" font-style="italic" font-size="48.0" fill="#747676" transform="matrix(1.00, 0.00, -0.00, -1.00, 630.2, 266.0)">u</text><text xml:space="preserve" font-family="IowanOldStyle-Italic" font-style="italic" font-size="48.0" fill="#747676" transform="matrix(1.00, 0.00, -0.00, -1.00, 654.3, 266.0)">r</text><text xml:space="preserve" font-family="IowanOldStyle-Italic" font-style="italic" font-size="48.0" fill="#747676" transform="matrix(1.00, 0.00, -0.00, -1.00, 672.0, 266.0)">s</text><text xml:space="preserve" font-family="IowanOldStyle-Bold" font-weight="bold" font-size="28.0" fill="#A94731" transform="matrix(1.00, 0.00, -0.00, -1.00, 395.0, 137.0)">H</text><text xml:space="preserve" font-family="IowanOldStyle-Bold" font-weight="bold" font-size="28.0" fill="#A94731" transform="matrix(1.00, 0.00, -0.00, -1.00, 418.7, 137.0)">e</text><text xml:space="preserve" font-family="IowanOldStyle-Bold" font-weight="bold" font-size="28.0" fill="#A94731" transform="matrix(1.00, 0.00, -0.00, -1.00, 433.5, 137.0)">r</text><text xml:space="preserve" font-family="IowanOldStyle-Bold" font-weight="bold" font-size="28.0" fill="#A94731" transform="matrix(1.00, 0.00, -0.00, -1.00, 445.4, 137.0)">n</text><text xml:space="preserve" font-family="IowanOldStyle-Bold" font-weight="bold" font-size="28.0" fill="#A94731" transform="matrix(1.00, 0.00, -0.00, -1.00, 462.8, 137.0)">a</text><text xml:space="preserve" font-family="IowanOldStyle-Bold" font-weight="bold" font-size="28.0" fill="#A94731" transform="matrix(1.00, 0.00, -0.00, -1.00, 477.5, 137.0)">n</text><text xml:space="preserve" font-family="IowanOldStyle-Bold" font-weight="bold" font-size="28.0" fill="#A94731" transform="matrix(1.00, 0.00, -0.00, -1.00, 494.9, 137.0)"> </text><text xml:space="preserve" font-family="IowanOldStyle-Bold" font-weight="bold" font-size="28.0" fill="#A94731" transform="matrix(1.00, 0.00, -0.00, -1.00, 503.2, 137.0)">Q</text><text xml:space="preserve" font-family="IowanOldStyle-Bold" font-weight="bold" font-size="28.0" fill="#A94731" transform="matrix(1.00, 0.00, -0.00, -1.00, 526.6, 137.0)">u</text><text xml:space="preserve" font-family="IowanOldStyle-Bold" font-weight="bold" font-size="28.0" fill="#A94731" transform="matrix(1.00, 0.00, -0.00, -1.00, 544.1, 137.0)">i</text><text xml:space="preserve" font-family="IowanOldStyle-Bold" font-weight="bold" font-size="28.0" fill="#A94731" transform="matrix(1.00, 0.00, -0.00, -1.00, 553.1, 137.0)">n</text><text xml:space="preserve" font-family="IowanOldStyle-Bold" font-weight="bold" font-size="28.0" fill="#A94731" transform="matrix(1.00, 0.00, -0.00, -1.00, 570.5, 137.0)">t</text><text xml:space="preserve" font-family="IowanOldStyle-Bold" font-weight="bold" font-size="28.0" fill="#A94731" transform="matrix(1.00, 0.00, -0.00, -1.00, 581.5, 137.0)">a</text><text xml:space="preserve" font-family="IowanOldStyle-Bold" font-weight="bold" font-size="28.0" fill="#A94731" transform="matrix(1.00, 0.00, -0.00, -1.00, 596.2, 137.0)">n</text><text xml:space="preserve" font-family="IowanOldStyle-Bold" font-weight="bold" font-size="28.0" fill="#A94731" transform="matrix(1.00, 0.00, -0.00, -1.00, 613.6, 137.0)">a</text><text xml:space="preserve" font-family="IowanOldStyle-Bold" font-weight="bold" font-size="28.0" fill="#A94731" transform="matrix(1.00, 0.00, -0.00, -1.00, 628.3, 137.0)"> </text><text xml:space="preserve" font-family="IowanOldStyle-Bold" font-weight="bold" font-size="28.0" fill="#A94731" transform="matrix(1.00, 0.00, -0.00, -1.00, 479.0, 85.0)">2</text><text xml:space="preserve" font-family="IowanOldStyle-Bold" font-weight="bold" font-size="28.0" fill="#A94731" transform="matrix(1.00, 0.00, -0.00, -1.00, 495.6, 85.0)">0</text><text xml:space="preserve" font-family="IowanOldStyle-Bold" font-weight="bold" font-size="28.0" fill="#A94731" transform="matrix(1.00, 0.00, -0.00, -1.00, 512.3, 85.0)">1</text><text xml:space="preserve" font-family="IowanOldStyle-Bold" font-weight="bold" font-size="28.0" fill="#A94731" transform="matrix(1.00, 0.00, -0.00, -1.00, 528.9, 85.0)">6</text><text xml:space="preserve" font-family="IowanOldStyle-Bold" font-weight="bold" font-size="28.0" fill="#A94731" transform="matrix(1.00, 0.00, -0.00, -1.00, 764.0, 715.0)">L</text><text xml:space="preserve" font-family="IowanOldStyle-Bold" font-weight="bold" font-size="28.0" fill="#A94731" transform="matrix(1.00, 0.00, -0.00, -1.00, 781.4, 715.0)">e</text><text xml:space="preserve" font-family="IowanOldStyle-Bold" font-weight="bold" font-size="28.0" fill="#A94731" transform="matrix(1.00, 0.00, -0.00, -1.00, 796.3, 715.0)">v</text><text xml:space="preserve" font-family="IowanOldStyle-Bold" font-weight="bold" font-size="28.0" fill="#A94731" transform="matrix(1.00, 0.00, -0.00, -1.00, 811.3, 715.0)">e</text><text xml:space="preserve" font-family="IowanOldStyle-Bold" font-weight="bold" font-size="28.0" fill="#A94731" transform="matrix(1.00, 0.00, -0.00, -1.00, 826.2, 715.0)">l</text><text xml:space="preserve" font-family="IowanOldStyle-Bold" font-weight="bold" font-size="28.0" fill="#A94731" transform="matrix(1.00, 0.00, -0.00, -1.00, 835.1, 715.0)">:</text><text xml:space="preserve" font-family="IowanOldStyle-Bold" font-weight="bold" font-size="28.0" fill="#A94731" transform="matrix(1.00, 0.00, -0.00, -1.00, 843.4, 715.0)"> </text><text xml:space="preserve" font-family="IowanOldStyle-Bold" font-weight="bold" font-size="28.0" fill="#A94731" transform="matrix(1.00, 0.00, -0.00, -1.00, 851.7, 715.0)">[</text><text xml:space="preserve" font-family="IowanOldStyle-Bold" font-weight="bold" font-size="28.0" fill="#A94731" transform="matrix(1.00, 0.00, -0.00, -1.00, 864.8, 715.0)"> </text><text xml:space="preserve" font-family="IowanOldStyle-Bold" font-weight="bold" font-size="28.0" fill="#A94731" transform="matrix(1.00, 0.00, -0.00, -1.00, 873.1, 715.0)">*</text><text xml:space="preserve" font-family="IowanOldStyle-Bold" font-weight="bold" font-size="28.0" fill="#A94731" transform="matrix(1.00, 0.00, -0.00, -1.00, 887.1, 715.0)"> </text><text xml:space="preserve" font-family="IowanOldStyle-Bold" font-weight="bold" font-size="28.0" fill="#A94731" transform="matrix(1.00, 0.00, -0.00, -1.00, 895.4, 715.0)">*</text><text xml:space="preserve" font-family="IowanOldStyle-Bold" font-weight="bold" font-size="28.0" fill="#A94731" transform="matrix(1.00, 0.00, -0.00, -1.00, 909.5, 715.0)"> </text><text xml:space="preserve" font-family="IowanOldStyle-Bold" font-weight="bold" font-size="28.0" fill="#A94731" transform="matrix(1.00, 0.00, -0.00, -1.00, 917.8, 715.0)">]</text></g></svg>