<?xml version="1.0" encoding="UTF-8" standalone="no"?><svg xmlns="http://www.w3.org/2000/svg" xmlns:xlink="http://www.w3.org/1999/xlink" clip-rule="evenodd" stroke-miterlimit="4.00" viewBox="0 0 1024 768"><desc>SVG generated by Keynote</desc><defs></defs><g transform="matrix(1.00, 0.00, -0.00, -1.00, 0.0, 768.0)"><path d="M 0.0 768.0 L 1024.0 768.0 L 1024.0 0.0 L 0.0 0.0 Z M 0.0 768.0 " fill="#FFFFFF"></path><g><clipPath id="clip-1"><path d="M 593.0 768.0 L 1024.0 768.0 L 1024.0 0.0 L 593.0 0.0 Z M 593.0 768.0 "></path></clipPath><g clip-path="url(#clip-1)"><image xlink:href="../../DF1FC04F-C62B-44A1-8488-09BAF7E06AA1/assets/C9C45D50B2E7D68C0E9AAA86DD9F4E44.jpeg" width="769.00" height="769.00" transform="matrix(1.00, 0.00, -0.00, -1.00, 330.0, 769.0)"></image></g></g><path d="M 0.0 0.0 L 508.0 0.0 " fill="none" stroke="#747676" stroke-width="3.00" stroke-linecap="round" stroke-linejoin="round" stroke-dasharray="0.0, 9.0" transform="matrix(1.00, 0.00, 0.00, -1.00, 45.0, 168.0)"></path><text xml:space="preserve" font-family="DINCondensed-Bold" font-weight="bold" font-size="121.0" fill="#5C5C5C" transform="matrix(1.00, 0.00, -0.00, -1.00, 235.5, 194.0)">N</text><text xml:space="preserve" font-family="DINCondensed-Bold" font-weight="bold" font-size="121.0" fill="#5C5C5C" transform="matrix(1.00, 0.00, -0.00, -1.00, 289.2, 194.0)">O</text><text xml:space="preserve" font-family="DINCondensed-Bold" font-weight="bold" font-size="121.0" fill="#5C5C5C" transform="matrix(1.00, 0.00, -0.00, -1.00, 340.8, 194.0)">D</text><text xml:space="preserve" font-family="DINCondensed-Bold" font-weight="bold" font-size="121.0" fill="#5C5C5C" transform="matrix(1.00, 0.00, -0.00, -1.00, 392.3, 194.0)">E</text><text xml:space="preserve" font-family="DINCondensed-Bold" font-weight="bold" font-size="121.0" fill="#5C5C5C" transform="matrix(1.00, 0.00, -0.00, -1.00, 437.1, 194.0)">.</text><text xml:space="preserve" font-family="DINCondensed-Bold" font-weight="bold" font-size="121.0" fill="#5C5C5C" transform="matrix(1.00, 0.00, -0.00, -1.00, 459.6, 194.0)">J</text><text xml:space="preserve" font-family="DINCondensed-Bold" font-weight="bold" font-size="121.0" fill="#5C5C5C" transform="matrix(1.00, 0.00, -0.00, -1.00, 499.9, 194.0)">S</text></g></svg>